<?xml version="1.0" encoding="UTF-8" standalone="no"?>
<!-- Created with Inkscape (http://www.inkscape.org/) -->

<svg
   xmlns:dc="http://purl.org/dc/elements/1.1/"
   xmlns:cc="http://creativecommons.org/ns#"
   xmlns:rdf="http://www.w3.org/1999/02/22-rdf-syntax-ns#"
   xmlns:svg="http://www.w3.org/2000/svg"
   xmlns="http://www.w3.org/2000/svg"
   xmlns:sodipodi="http://sodipodi.sourceforge.net/DTD/sodipodi-0.dtd"
   xmlns:inkscape="http://www.inkscape.org/namespaces/inkscape"
   width="234"
   height="374"
   id="svg3016"
   version="1.1"
   inkscape:version="0.48.4 r9939"
   sodipodi:docname="cover.svg"
   inkscape:export-filename="/home/meumeu/projects/SportsTracker/cover.png"
   inkscape:export-xdpi="90"
   inkscape:export-ydpi="90">
  <defs
     id="defs3018" />
  <sodipodi:namedview
     id="base"
     pagecolor="#ffffff"
     bordercolor="#666666"
     borderopacity="1.0"
     inkscape:pageopacity="0.0"
     inkscape:pageshadow="2"
     inkscape:zoom="1.3482004"
     inkscape:cx="-4.1555449"
     inkscape:cy="151.1189"
     inkscape:document-units="px"
     inkscape:current-layer="layer1"
     showgrid="false"
     inkscape:window-width="1680"
     inkscape:window-height="995"
     inkscape:window-x="-2"
     inkscape:window-y="-3"
     inkscape:window-maximized="1" />
  <metadata
     id="metadata3021">
    <rdf:RDF>
      <cc:Work
         rdf:about="">
        <dc:format>image/svg+xml</dc:format>
        <dc:type
           rdf:resource="http://purl.org/dc/dcmitype/StillImage" />
        <dc:title></dc:title>
      </cc:Work>
    </rdf:RDF>
  </metadata>
  <g
     inkscape:label="Calque 1"
     inkscape:groupmode="layer"
     id="layer1"
     transform="translate(0,-678.36218)">
    <path
       d="m 228.58763,943.22984 c -8.14047,-3.88258 -21.45357,-6.83603 -24.96903,-17.56285 0,0 -0.18873,-28.47832 2.40585,-44.5644 l 1.29828,-12.75731 c 0,0 2.76478,-10.53912 -5.92231,-14.61038 l -1.66441,-1.29727 c 0,0 -27.73479,-23.4841 -41.05511,-30.13347 0,0 8.51579,-9.25109 13.87509,-27.3759 0,0 0.54662,-3.69594 3.51548,0 2.95342,3.70307 6.46991,1.10961 7.57948,0.18764 1.10858,-0.92911 9.60898,-1.8521 29.5869,-18.49297 0,0 3.88256,-2.95242 6.10176,-3.14112 2.21819,-0.18764 9.42953,-2.2192 8.14047,-7.95281 -1.29728,-5.73466 -8.32915,-9.25109 -8.32915,-9.25109 l -6.84322,0 c 0,0 -4.43736,4.80553 -4.43736,7.77332 0,2.96166 -2.76578,5.17266 -2.95345,5.72749 -0.18764,0.55478 -11.65697,7.77332 -18.50117,7.77332 0,0 2.03869,-12.57887 -3.31957,-22.37552 l -1.48389,-13.75822 c 0,0 -0.55483,-3.06217 -8.13431,-7.69539 l 0.18837,-7.0237 7.57845,0 c 0,0 2.21821,-1.10957 3.14114,-3.32878 0.92194,-2.21918 2.78119,-13.68848 2.78119,-13.68848 l -1.67158,-20.70291 c 0,0 -1.84384,-12.3912 -20.70395,-9.42955 -18.86006,2.95244 -17.20286,19.60154 -17.20286,19.60154 0,0 -0.92193,7.5785 8.68811,15.89945 l -3.50828,5.55517 c 0,0 -10.53912,-1.11675 -14.42168,2.39047 -3.88256,3.51545 -29.77457,20.344 -35.68865,30.88415 0,0 -5.734655,5.92948 -1.48083,12.02407 4.2507,6.10177 24.03582,31.61021 24.03582,31.61021 0,0 -8.31685,11.64873 -13.86693,17.56283 -5.54283,5.93051 -7.57848,15.72613 -8.50862,18.31347 -1.98934,6.60155 -1.07472,6.12772 -1.32167,13.00187 0,0 -14.760312,21.76488 -18.279876,28.23376 -3.512341,6.47608 -8.316856,6.65555 -8.87573,6.85246 -0.554797,0.17138 -19.782026,-2.96989 -31.985586,7.75693 -12.207622,10.72783 -23.301556,5.92228 -23.301556,5.92228 0,0 -11.8363693,-3.14829 -12.7583083,8.13328 -0.925006,11.27342 -1.6644062,12.02407 -3.5113512,17.1957 -1.85100914,5.18086 -3.14830082,15.15698 0,17.01623 3.1411337,1.84487 7.5784885,-8.14045 7.5784885,-8.14045 0,0 13.312101,-16.45426 15.164181,-17.75153 1.847981,-1.29728 41.790431,-9.97715 41.790431,-9.97715 0,0 12.203511,-1.29725 17.19673,-0.74963 4.996248,0.55478 10.543215,-2.77403 10.543215,-2.77403 l 1.476734,-1.84284 c 0,0 24.965958,-15.35286 37.911938,-34.21193 0,0 5.64828,-9.66244 9.4148,-7.80383 l 13.69499,5.77128 c 0,0 12.02407,6.51608 28.84441,7.6021 0,0 -5.35928,14.21043 -2.57811,28.64238 2.76477,14.42171 7.94561,23.66457 6.836,32.91468 -1.10958,9.24285 -1.66441,12.39118 -1.10958,15.34465 0.55478,2.95345 15.5395,3.14829 17.93817,3.14829 2.40682,0 11.83635,3.14114 24.40704,1.47571 -0.008,0 4.80759,-2.03053 -3.32569,-5.92127 z M 129.27962,779.39592 c -6.46888,-6.28123 -9.61308,-17.92997 -9.61308,-17.92997 3.69898,-2.03868 13.87103,-10.17196 13.87103,-10.17196 1.10958,12.57784 -4.25795,28.10193 -4.25795,28.10193 z"
       id="path3045"
       inkscape:connector-curvature="0"
       sodipodi:nodetypes="cccccccccccccccsscccccccccccccccccccccccccccccccccccccccsscccccc"
       style="fill:#bdd7ff;fill-opacity:1" />
  </g>
</svg>
