<?xml version="1.0" standalone="no"?>
<!DOCTYPE svg PUBLIC "-//W3C//DTD SVG 20010904//EN" "http://www.w3.org/TR/2001/REC-SVG-20010904/DTD/svg10.dtd">
<!-- Created using Karbon, part of Calligra: http://www.calligra.org/karbon -->
<svg xmlns="http://www.w3.org/2000/svg" xmlns:xlink="http://www.w3.org/1999/xlink" width="47.7736pt" height="80pt">
<defs/>
<g id="layer0">
  <path id="shape0" transform="matrix(1 0 0 1 39.964 -0.343)" fill="#ffffff" d="M39.196 41.778C39.11 41.744 39.016 41.727 38.92 41.727C38.493 41.727 38.148 42.073 38.148 42.498L38.145 42.493L38.142 48.518C38.142 48.838 38.337 49.106 38.618 49.223C46.79 52.648 52.534 60.719 52.534 70.137C52.534 82.661 42.383 92.812 29.861 92.812C17.337 92.812 7.187 82.662 7.187 70.137C7.187 58.73 15.607 49.299 26.571 47.705L26.563 66.637C25.639 67.51 25.055 68.741 25.049 70.113C25.045 71.063 25.32 71.95 25.792 72.697L19.811 79.568L16.535 79.568C16.268 79.568 16.052 79.786 16.052 80.051L16.052 82.776C16.052 83.045 16.268 83.262 16.536 83.262L24.065 83.261C24.332 83.261 24.549 83.044 24.548 82.776L24.548 80.051C24.548 79.785 24.332 79.568 24.065 79.567L23.468 79.567L27.88 74.519C28.478 74.791 29.141 74.946 29.84 74.95C32.498 74.964 34.664 72.819 34.677 70.162C34.681 69.211 34.406 68.325 33.935 67.576L39.974 60.533L43.251 60.533C43.519 60.533 43.735 60.315 43.735 60.05L43.735 57.324C43.735 57.057 43.518 56.841 43.251 56.841L35.721 56.841C35.454 56.841 35.238 57.058 35.238 57.326L35.238 60.05C35.238 60.316 35.455 60.533 35.721 60.535L36.318 60.535L33.1 64.299L33.124 11.244C38.594 10.209 43.249 7.672 46.214 4.259C46.377 4.069 46.455 3.811 46.455 3.539C46.455 3.258 46.355 3.002 46.19 2.802L44.579 0.844C44.154 0.329 43.51 0 42.789 0C42.24 0 41.736 0.192 41.337 0.511C38.381 2.918 33.34 4.503 27.623 4.503C25.696 4.503 23.852 4.317 22.133 3.988C19.15 3.377 17.487 2.068 17.09 1.763C16.685 1.452 16.187 1.251 15.638 1.251C14.357 1.251 13.32 2.289 13.32 3.569L13.318 7.223C13.318 7.668 13.568 8.054 13.937 8.247C17.445 10.295 21.815 11.574 26.585 11.736L26.573 40.465C11.628 42.102 0 54.757 0 70.14C0 86.635 13.368 99.999 29.859 99.999C46.348 99.999 59.716 86.635 59.716 70.14C59.719 56.908 51.113 45.698 39.196 41.778Z"/>
 </g>
</svg>
