<?xml version="1.0" standalone="no"?>
<!DOCTYPE svg PUBLIC "-//W3C//DTD SVG 20010904//EN" "http://www.w3.org/TR/2001/REC-SVG-20010904/DTD/svg10.dtd">
<!-- Created using Karbon, part of Calligra: http://www.calligra.org/karbon -->
<svg xmlns="http://www.w3.org/2000/svg" xmlns:xlink="http://www.w3.org/1999/xlink" width="40.32pt" height="40.32pt">
<defs/>
<g id="Layer_1">
  <circle id="shape0" transform="matrix(1 0 0 1 41.658 0.08)" r="3.35280000000pt" cx="3.35280000000pt" cy="3.35280000000pt" fill="#ffffff"/>
  <path id="shape1" transform="matrix(1 0 0 1 22.5676 8.57979)" fill="#ffffff" d="M25.9114 24.4692L19.7174 12.8992C19.6134 12.7112 19.4574 12.5672 19.2754 12.4742L21.9824 9.30721C21.9824 9.30721 25.2104 5.32821 23.7654 2.74521C22.5594 0.596205 20.1454 -0.0947946 19.3464 0.0102054L19.3294 0.0442054C19.1384 0.0322054 18.9364 0.0382054 18.7274 0.0882054L7.97343 2.57721C7.29143 2.73921 6.72643 3.21721 6.45443 3.86321C6.18343 4.51121 6.23543 5.24621 6.59843 5.84621L9.59543 10.7752L8.91543 12.3562L6.82243 12.3562C6.50843 12.3562 6.21543 12.4942 6.01743 12.7382C5.90243 12.8772 3.26143 16.2072 5.22343 19.8042C6.17343 21.5472 9.26843 24.0142 11.2264 25.4692C8.98843 26.3372 5.35043 27.9772 3.55443 30.0682C0.929426 33.1312 0.0554259 37.3842 0.0204259 37.5652C-0.0895741 38.1112 0.255426 38.6482 0.797426 38.7752L13.7464 41.8022C13.8264 41.8232 13.9044 41.8272 13.9824 41.8272C14.3134 41.8272 14.6334 41.6662 14.8314 41.3872L25.8484 25.5482C26.0734 25.2292 26.0954 24.8112 25.9114 24.4692ZM16.4494 5.08121L13.6554 7.29121L16.7134 12.3542L15.3724 12.3542L11.6114 6.15021ZM21.7184 27.8712L10.7734 33.2592C10.2604 33.5072 10.0494 34.1292 10.3034 34.6442C10.4814 35.0092 10.8484 35.2172 11.2314 35.2172C11.3814 35.2172 11.5424 35.1822 11.6844 35.1112L19.2824 31.3722L13.5344 39.6302L2.29743 36.9982C2.68043 35.6762 3.54343 33.2592 5.12643 31.4132C7.38143 28.7802 13.6784 26.7912 13.7414 26.7682C14.1214 26.6502 14.3944 26.3292 14.4564 25.9392C14.5134 25.5472 14.3424 25.1552 14.0204 24.9322C12.3944 23.8132 7.98043 20.5392 7.03943 18.8132C6.03943 16.9852 6.89043 15.1872 7.36243 14.4212L11.8144 14.4212L13.4454 17.1052C13.8594 17.7842 14.5824 18.1592 15.3204 18.1592C15.7084 18.1592 16.0984 18.0532 16.4544 17.8422C17.4894 17.2132 17.8174 15.8662 17.1904 14.8332L16.9384 14.4202L18.1874 14.4202L23.7924 24.8852Z"/>
  <path id="shape2" transform="matrix(1 0 0 1 16.328 0.767)" fill="#ffffff" d="M6.5 3.251C6.5 5.043 5.044 6.501 3.251 6.501C1.455 6.501 0 5.043 0 3.251C0 1.455 1.456 0 3.251 0C5.044 2.22045e-16 6.5 1.455 6.5 3.251Z"/>
  <g id="group0" transform="translate(0.721589, 6.7646)" fill="none">
   <path id="shape3" transform="matrix(1 0 0 1 4.47959 0.621374)" fill="#ffffff" d="M16.6018 18.862L12.2318 9.96903C12.0938 9.68703 11.8258 9.50303 11.5208 9.45803L13.4368 7.21503C13.4368 7.21503 15.9408 4.13103 14.8178 2.12803C13.8848 0.461028 12.0158 -0.0739717 11.3948 0.00802826L11.3818 0.0310283C11.2308 0.0240283 11.0748 0.0280283 10.9148 0.0670283L2.57482 1.99903C2.04682 2.12203 1.61082 2.49203 1.39882 2.99403C1.18882 3.49303 1.23182 4.06703 1.51382 4.53003L3.83482 8.35403L3.36882 9.43403L1.77482 9.43403C1.48482 9.43403 1.21382 9.56603 1.03282 9.79003C0.95482 9.88703 -0.85518 12.18 0.50482 14.903C1.19682 16.291 3.08482 18.278 4.25982 19.447C3.29182 20.024 1.91382 20.985 0.73582 22.36C0.28682 22.883 0.0968196 23.541 0.18882 24.259C0.53082 26.92 4.87082 30.048 5.73682 30.654C5.89882 30.764 6.08982 30.823 6.27882 30.823C6.41182 30.823 6.54582 30.791 6.67182 30.736L13.8348 27.501C14.0838 27.385 14.2708 27.176 14.3518 26.914L16.6558 19.566C16.7278 19.334 16.7088 19.08 16.6018 18.862ZM9.14882 3.94003L7.06782 5.50803L9.44082 9.43503L8.09882 9.43503L5.26782 4.77003ZM12.6618 25.938L6.38782 28.774C4.56282 27.43 2.23882 25.261 2.07782 24.014C2.04982 23.789 2.12082 23.691 2.18182 23.604C4.10282 20.81 10.0888 18.903 10.0888 18.903C10.5738 18.702 10.8058 18.142 10.6018 17.657C10.4018 17.173 9.84282 16.941 9.35582 17.143L6.03682 18.521C4.86782 17.386 2.81182 15.259 2.20682 14.05C1.63482 12.905 2.01182 11.864 2.29082 11.342L5.64482 11.342L6.26082 12.379C6.58082 12.908 7.13982 13.196 7.71282 13.196C8.01082 13.196 8.44282 13.122 8.71582 12.946C9.36182 12.529 9.36182 11.967 9.27682 11.342L10.7838 11.342L14.7218 19.358Z"/>
   <path id="shape4" transform="matrix(1 0 0 1 9.02302 23.0692)" fill="#ffffff" d="M3.85039 0.438225C2.16539 -0.123775 0.865387 0.0132245 0.808387 0.0182245C0.309387 0.0742245 -0.0486129 0.524225 0.0053871 1.02522C0.0583871 1.51922 0.506387 1.87022 1.00939 1.82522C1.01739 1.82122 1.98239 1.73122 3.27439 2.16222C4.39139 2.53722 4.63239 2.82822 4.63239 2.82822L6.27439 2.04922C6.13839 1.76322 5.63039 1.03222 3.85039 0.438225Z"/>
   <path id="shape5" transform="matrix(1 0 0 1 0.623621 12.2773)" fill="#ffffff" d="M2.11579 4.01514C1.67679 2.78414 1.85279 1.02214 1.85479 1.00514C1.90579 0.506139 1.54379 0.0571386 1.04479 0.00513856C0.53779 -0.0478614 0.0997901 0.315139 0.0447901 0.816139C0.0357901 0.903139 -0.17521 3.00214 0.40379 4.62514C1.09979 6.57514 2.07179 7.74514 2.11279 7.79514C2.29179 8.00914 2.55079 8.12114 2.80879 8.12114C3.01679 8.12114 3.22279 8.05314 3.39179 7.90814C3.77679 7.58614 3.82879 7.01114 3.50579 6.62914C3.49779 6.61814 2.69379 5.63214 2.11579 4.01514Z"/>
  </g>
  <path id="shape6" transform="matrix(1 0 0 1 17.7317 34.4953)" fill="#ffffff" d="M0.952268 9.08568C0.837268 9.08568 0.719268 9.06168 0.602268 9.01368C0.113268 8.82368 -0.126732 8.26968 0.0672681 7.78068C0.548268 6.56068 1.22727 4.99068 2.18527 3.68968C4.02527 1.20368 5.57427 0.194678 5.64027 0.149678C6.08127 -0.132322 6.67027 -0.00432158 6.95627 0.436678C7.24027 0.878678 7.11327 1.46368 6.67227 1.75068C6.64627 1.76868 5.31827 2.65668 3.71627 4.82368C2.78427 6.08768 2.09827 7.82368 1.83927 8.48068C1.68927 8.85368 1.33127 9.08568 0.952268 9.08568Z"/>
 </g><g id="Layer_2"/><g id="Layer_3"/>
</svg>
