<?xml version="1.0" standalone="no"?>
<!DOCTYPE svg PUBLIC "-//W3C//DTD SVG 20010904//EN" "http://www.w3.org/TR/2001/REC-SVG-20010904/DTD/svg10.dtd">
<!-- Created using Karbon, part of Calligra: http://www.calligra.org/karbon -->
<svg xmlns="http://www.w3.org/2000/svg" xmlns:xlink="http://www.w3.org/1999/xlink" width="80pt" height="80pt">
<defs/>
<g id="layer0">
  <g id="group0" transform="" fill="none">
   <g id="group1" transform="" fill="none">
    <g id="group2" transform="" fill="none">
     <g id="group3" transform="" fill="none"/>
    </g>
    <g id="group4" transform="" fill="none"/>
   </g>
  </g>
  <path id="shape0" transform="translate(37.6035, 79.5357)" fill="#ffffff" d="M5.91052 0.00733428C2.80852 -0.150666 0.167516 2.26333 0.00751571 5.39233C-0.151484 8.52833 2.23152 11.1883 5.33352 11.3463C8.42952 11.5033 11.0805 9.09933 11.2395 5.96333C11.3985 2.83433 9.00652 0.165334 5.91052 0.00733428Z"/>
  <path id="shape1" transform="translate(6.165, 9.93211)" fill="#ffffff" d="M88.234 56.8379C88.071 56.5979 87.745 56.5359 87.505 56.6989L86.492 57.3869L85.902 56.5189C85.739 56.2789 85.413 56.2169 85.173 56.3799C84.933 56.5429 84.871 56.8689 85.034 57.1089L85.624 57.9769L59.53 75.7019C58.679 73.5399 57.196 69.8179 56.741 68.9869C56.09 67.7989 54.62 67.6289 54.62 67.6289L45.871 65.6299L48.977 51.5259C49.028 51.2899 49.035 51.0549 49.007 50.8279L49.294 44.1869L55.991 56.0299C56.394 56.7619 57.315 57.0289 58.048 56.6259C58.78 56.2229 59.047 55.3019 58.644 54.5689L49.577 37.6509L49.72 34.3389C49.929 32.5259 48.567 30.8789 46.754 30.6699C46.446 30.6339 46.142 30.6449 45.847 30.6909L45.36 29.7819L60.443 3.10989C60.846 2.37789 60.315 0.542894 59.582 0.138894C58.85 -0.264106 57.015 0.266894 56.611 0.999894L43.273 25.8899L30.591 2.22689C30.188 1.49489 28.353 0.962894 27.62 1.36589C26.888 1.76889 26.356 3.60389 26.759 4.33689L41.168 29.8169L40.713 30.6649C38.935 30.5089 37.287 31.7859 37.081 33.5679L36.471 38.5789L28.557 53.3449C28.154 54.0769 28.42 54.9979 29.153 55.4019C29.885 55.8049 30.806 55.5379 31.209 54.8059L35.397 47.3989L34.763 52.6139L32.511 62.8379L21.468 61.7249C21.468 61.7249 20.021 61.4159 19.025 62.3339C18.412 62.8989 16.334 65.3259 14.823 67.1119L2.669 36.8799L3.643 36.4879C3.912 36.3799 4.042 36.0739 3.934 35.8049C3.826 35.5359 3.521 35.4059 3.251 35.5139L2.277 35.9059L1.82 34.7699C1.712 34.5009 1.407 34.3709 1.137 34.4789C0.868003 34.5869 0.738003 34.8929 0.846003 35.1619L1.303 36.2979L0.329003 36.6899C0.0600032 36.7979 -0.0699968 37.1039 0.0380032 37.3729C0.120003 37.5779 0.317003 37.7019 0.525003 37.7019C0.590003 37.7019 0.656003 37.6899 0.721003 37.6639L1.695 37.2719L14.058 68.0219C13.515 68.6679 13.155 69.0999 13.155 69.0999C12.185 70.2039 12.33 71.9189 13.435 72.8889C14.539 73.8589 16.258 73.7839 17.228 72.6799L21.728 67.4939L32.026 69.3139C33.364 68.1049 35.519 67.5449 37.062 67.6289C38.606 67.7119 41.045 68.5139 42.397 70.0249C42.878 70.5619 43.39 71.3209 43.697 71.9539L52.456 73.0129L55.103 79.3639C55.67 80.7199 57.294 81.3399 58.65 80.7729C60.006 80.2059 60.701 78.6269 60.134 77.2709C60.134 77.2709 60.057 77.0589 59.917 76.7019L86.21 58.8419L86.801 59.7099C86.902 59.8589 87.068 59.9399 87.236 59.9399C87.337 59.9399 87.44 59.9109 87.531 59.8489C87.771 59.6859 87.833 59.3599 87.67 59.1199L87.08 58.2519L88.093 57.5639C88.335 57.4039 88.397 57.0769 88.234 56.8379Z"/>
 </g>
</svg>
